<svg width="161" height="43" viewBox="0 0 161 43" fill="none" xmlns="http://www.w3.org/2000/svg">
<path d="M56.6903 8.04792V28.3627H64.2615V22.2345H73.763C80.2472 22.2345 82.1681 19.3485 82.1681 15.1412C82.1681 10.934 80.2472 8.04792 73.763 8.04792H56.6903ZM74.4751 15.263C74.4751 17.4276 73.7536 18.0273 71.3548 18.0273H64.2615V12.2552H71.3548C73.7536 12.2552 74.4751 12.8549 74.4751 14.8976V15.263Z" fill="white"/>
<path d="M112.939 23.5568C108.488 22.9571 105.846 20.7926 102.726 19.9493C107.654 19.4714 110.053 17.9065 110.053 13.8211C110.053 9.73564 107.533 7.92717 100.083 7.92717H84.4535V28.242H92.0247V22.3481H93.2241C96.4756 22.3481 98.0311 23.0696 101.517 25.1123C105.968 27.6423 109.097 28.7199 113.661 28.7199C115.947 28.7199 118.468 28.3638 120.154 27.3986V8.04899H112.939V23.6786V23.5568ZM102.482 15.4984C102.482 16.8196 101.882 17.6629 99.7178 17.6629H92.1466V12.4999H99.7178C101.882 12.4999 102.482 13.3338 102.482 14.655V15.4984Z" fill="white"/>
<path d="M137.817 7.44881C127.726 7.44881 122.919 11.2906 122.919 18.0279C122.919 24.7557 127.726 28.8412 137.817 28.8412C147.909 28.8412 152.726 24.8776 152.726 18.0279C152.726 11.1782 147.909 7.44881 137.817 7.44881ZM145.033 18.6276C145.033 22.3476 143.346 23.9124 138.783 23.9124H136.74C132.167 23.9124 130.49 22.3476 130.49 18.6276V17.4282C130.49 13.6988 132.167 12.2558 136.74 12.2558H138.783C143.346 12.2558 145.033 13.6988 145.033 17.4282V18.6276Z" fill="white"/>
<path d="M49.2411 19.3496C44.6777 16.4635 39.749 15.3859 35.6635 15.1423C35.6635 12.6217 35.6635 10.3353 35.6635 9.01413C35.6635 8.41443 35.1763 7.92717 34.5766 7.92717C32.1778 7.92717 26.0402 7.92717 22.7981 7.92717C21.4769 7.92717 20.0339 7.92717 18.7127 8.41443C17.3915 8.7705 16.3139 9.3702 15.8266 10.6914C15.1051 12.4999 15.5924 14.6644 16.7918 15.742C17.9912 16.8196 19.556 16.9414 21.1208 17.185C19.0781 18.0284 17.2696 18.8623 15.3487 19.5838C14.749 19.8274 13.1842 20.1929 12.1066 20.3053C10.6636 20.3053 8.73331 19.9493 7.89935 19.5838C7.05602 19.2277 7.65572 19.8274 7.65572 19.9493V23.0696C7.65572 23.1914 7.65572 23.3132 7.89935 23.435C8.49905 23.6786 10.0639 24.1565 11.2633 24.2783C17.1478 24.6344 19.9121 22.7135 24.8408 20.1929C25.4405 19.8274 26.1621 19.5838 26.8836 19.4714C25.806 23.6786 22.6763 27.7641 18.8345 30.5283C14.9833 33.2926 18.7127 30.8844 18.8345 31.0062C19.7903 31.7277 20.8772 32.3274 21.9548 32.9271C23.0417 33.5268 22.3202 32.9271 22.442 32.9271C26.8836 29.3196 29.8914 24.6344 31.0908 19.7056C32.6557 21.5141 34.942 24.1565 35.1763 26.9208C35.4199 29.9193 34.8202 32.571 33.9769 34.9698C33.9769 35.2135 33.9769 35.3353 34.2205 35.3353C35.0545 35.3353 36.7411 35.2135 37.8187 34.9698C38.9056 34.7356 38.0623 34.848 38.1841 34.7356C39.0275 32.4492 39.749 29.8068 39.5053 26.9208C39.2617 24.1565 38.4278 22.2356 35.6635 19.4714C39.0275 19.7056 43.2347 20.6708 46.9547 22.9571C50.6841 25.2341 47.3202 22.9571 47.442 22.9571L49.3629 20.0711C49.3629 19.9493 49.3629 19.7056 49.3629 19.7056L49.2411 19.3496ZM32.5339 10.3353C33.2554 10.3353 33.9769 10.935 33.8551 11.6566C33.6114 13.2214 31.3345 12.9778 31.4469 11.4223C31.4469 10.8226 31.9342 10.4572 32.5339 10.3353Z" fill="white"/>
</svg>
