<svg xmlns="http://www.w3.org/2000/svg" width="138" height="67" fill="#fff" xmlns:v="https://vecta.io/nano"><path d="M12.398 51.621c-1.699-.515-2.445-.842-2.445-1.801 0-.87 1.158-1.179 2.151-1.179a4.68 4.68 0 0 1 2.435.672c.075.048.159.079.247.092s.177.007.263-.018.165-.066.232-.124a.63.63 0 0 0 .161-.208l.288-.577c.069-.138.084-.296.044-.444a.63.63 0 0 0-.262-.361 6.51 6.51 0 0 0-3.379-.965c-2.463 0-4.118 1.264-4.118 3.147 0 2.445 2.059 3.062 3.724 3.562 1.735.515 2.494.854 2.486 1.886s-1.22 1.405-2.362 1.405a4.8 4.8 0 0 1-3.008-1.251.66.66 0 0 0-.237-.149.69.69 0 0 0-.278-.039.63.63 0 0 0-.468.301l-.332.561c-.073.121-.104.263-.086.403s.082.27.184.369a6.22 6.22 0 0 0 4.218 1.714c2.573 0 4.313-1.338 4.313-3.325.021-2.522-2.077-3.158-3.762-3.67m11.36-4.52a.63.63 0 0 0-.571-.365h-.682a.62.62 0 0 0-.34.1.63.63 0 0 0-.231.268L17.13 57.712a.63.63 0 0 0 .572.888h.697a.63.63 0 0 0 .571-.368l1.199-2.651h5.404l1.215 2.653a.63.63 0 0 0 .569.365h.697a.63.63 0 0 0 .3-.078.62.62 0 0 0 .226-.211.63.63 0 0 0 .043-.599l-4.856-10.61zm-2.756 6.583l1.84-4.076 1.861 4.076h-3.701zm10.759-6.946h-.636a.63.63 0 0 0-.628.628v10.608a.63.63 0 0 0 .628.628h.636a.63.63 0 0 0 .628-.628v-10.61a.63.63 0 0 0-.628-.628m13.242.002h-.623a.63.63 0 0 0-.628.628v7.721l-5.955-8.094c-.059-.081-.136-.147-.226-.191s-.189-.067-.289-.066h-.744a.63.63 0 0 0-.628.628v10.608a.64.64 0 0 0 .047.241c.031.077.078.146.136.204s.128.105.204.136a.64.64 0 0 0 .241.047h.636a.63.63 0 0 0 .444-.184c.118-.118.184-.277.184-.444v-7.72l5.94 8.096a.63.63 0 0 0 .515.257h.746a.63.63 0 0 0 .628-.628V47.365a.63.63 0 0 0-.628-.628m10.936.003h-7.803a.62.62 0 0 0-.24.048c-.076.032-.145.078-.203.136a.62.62 0 0 0-.135.204c-.031.076-.047.158-.047.24v.623c0 .166.066.325.183.442s.276.183.442.183h2.957v9.36a.63.63 0 0 0 .628.628h.636a.63.63 0 0 0 .444-.184c.118-.118.184-.277.184-.444v-9.36h2.954c.082 0 .164-.016.24-.047a.63.63 0 0 0 .204-.135c.059-.058.105-.127.136-.203a.64.64 0 0 0 .048-.24v-.623a.63.63 0 0 0-.628-.628zm4.666 5.78h-3.387a.63.63 0 0 0-.628.628v.515a.63.63 0 0 0 .628.628h3.384a.62.62 0 0 0 .24-.048c.076-.032.145-.078.203-.136a.62.62 0 0 0 .135-.204c.031-.076.047-.158.047-.24v-.515c0-.082-.016-.164-.047-.24a.63.63 0 0 0-.135-.204c-.058-.059-.127-.105-.203-.136a.64.64 0 0 0-.24-.048m13.182-.378h-2.471a.63.63 0 0 0-.628.628v.638a.63.63 0 0 0 .628.628h1.266v1.94a4.49 4.49 0 0 1-2.53.772c-2.342 0-4.244-1.835-4.244-4.092s1.904-4.079 4.244-4.079a4.44 4.44 0 0 1 2.936 1.099.63.63 0 0 0 .71.088.63.63 0 0 0 .195-.16l.378-.471a.63.63 0 0 0-.075-.867c-1.149-1-2.623-1.549-4.146-1.544-3.384 0-6.138 2.664-6.138 5.94s2.738 5.953 6.107 5.953a6.48 6.48 0 0 0 4.174-1.544c.069-.059.124-.132.161-.214a.63.63 0 0 0 .057-.262v-3.827a.63.63 0 0 0-.628-.628m8.899-5.417c-3.374 0-6.12 2.664-6.12 5.94s2.746 5.953 6.12 5.953 6.122-2.669 6.122-5.953-2.746-5.94-6.122-5.94zm0 10.016c-2.316 0-4.215-1.83-4.215-4.076s1.892-4.061 4.215-4.061 4.213 1.822 4.213 4.061-1.892 4.076-4.213 4.076zm16.165-4.405a3 3 0 0 0 .759-1.061c.172-.405.252-.843.235-1.283 0-2.007-1.508-3.253-3.935-3.253H91.57a.63.63 0 0 0-.625.628v10.608a.63.63 0 0 0 .625.628h4.375c2.779 0 4.437-1.3 4.437-3.479.019-.559-.112-1.113-.381-1.604a3.11 3.11 0 0 0-1.148-1.183zm-2.957-.772h-3.062v-2.934h3.063c.939 0 2.059.257 2.059 1.452 0 .983-.692 1.482-2.059 1.482zm-3.062 1.876h3.063c.968 0 2.589.211 2.589 1.619s-1.408 1.68-2.589 1.68h-3.062v-3.312m15.23-6.323a.62.62 0 0 0-.232-.266c-.101-.065-.219-.099-.339-.099h-.682a.63.63 0 0 0-.571.368l-4.8 10.608a.63.63 0 0 0-.054.305.62.62 0 0 0 .098.294.63.63 0 0 0 .528.288h.697c.12 0 .238-.035.34-.1a.63.63 0 0 0 .231-.268l1.199-2.651h5.405l1.214 2.653a.63.63 0 0 0 .233.266c.101.065.219.099.339.099h.697a.63.63 0 0 0 .528-.288.62.62 0 0 0 .098-.294.63.63 0 0 0-.054-.305l-4.875-10.61zm-2.756 6.583l1.84-4.076 1.861 4.076h-3.688m10.757-6.946h-.638a.63.63 0 0 0-.444.184c-.118.118-.184.277-.184.444v10.608a.63.63 0 0 0 .628.628h.638a.63.63 0 0 0 .241-.048c.076-.032.145-.078.203-.136s.105-.128.137-.204a.64.64 0 0 0 .047-.24v-10.61a.64.64 0 0 0-.047-.24c-.032-.076-.078-.145-.137-.204s-.127-.105-.203-.136a.63.63 0 0 0-.241-.048m13.235.002h-.622c-.083 0-.164.016-.24.048a.62.62 0 0 0-.203.136.61.61 0 0 0-.136.204c-.031.076-.047.158-.047.24v7.721l-5.955-8.099a.62.62 0 0 0-.514-.258h-.744a.63.63 0 0 0-.628.628v10.608c0 .167.066.326.184.444s.277.184.444.184h.638a.62.62 0 0 0 .24-.048c.076-.032.145-.078.203-.136a.64.64 0 0 0 .136-.204c.031-.076.047-.158.046-.24v-7.72l5.94 8.096a.62.62 0 0 0 .515.257h.743c.083 0 .164-.016.24-.048a.64.64 0 0 0 .204-.136.62.62 0 0 0 .135-.204c.031-.076.047-.158.047-.24V47.365c0-.082-.016-.164-.047-.24a.62.62 0 0 0-.135-.204.64.64 0 0 0-.204-.136c-.076-.032-.157-.048-.24-.048M76.305 30.095v10.428h-1.92V28.659l1.92 1.436zm37.223 10.402h-7.553l-.054-.051-6.642-6.57a.96.96 0 0 0-.485-.254c-.183-.036-.372-.019-.545.05s-.324.195-.429.352-.161.342-.161.531v5.968h-1.974V25.728a.96.96 0 0 0-.301-.695l-5.52-5.214a.95.95 0 0 0-.656-.257h-2.761a.96.96 0 0 0-.676.279c-.179.178-.281.422-.281.675v20.006h-1.958V8.404a.95.95 0 0 0-.594-.885.97.97 0 0 0-1.045.214l-9.141 9.265a.95.95 0 0 0-.275.672v7.165l-3.742-2.795a.98.98 0 0 0-1.171.021l-8.511 6.822a.95.95 0 0 0-.358.746v10.896h-1.927v-5.999c0-2.108-1.451-4.347-4.138-4.347s-4.138 2.249-4.138 4.375v5.971H46.54v-4.071c0-1.65-1.135-3.402-3.24-3.402s-3.24 1.753-3.24 3.405v4.069h-1.943v-.18-2.293c0-1.4-1.323-2.63-2.831-2.63s-2.831 1.222-2.831 2.617v2.483h-8.531a.95.95 0 0 0-.381.058c-.121.045-.233.114-.327.204a.96.96 0 0 0-.22 1.072c.051.119.126.227.221.317a.96.96 0 0 0 .709.262h9.478c.253 0 .497-.1.676-.279a.96.96 0 0 0 .281-.675v-3.266c.023-.232.128-.448.297-.609a.98.98 0 0 1 .622-.269.95.95 0 0 1 .919.908v3.243c.001.253.102.494.281.673s.421.279.673.28h3.86a.96.96 0 0 0 .674-.28.95.95 0 0 0 .28-.674v-5.026c0-.515.278-1.493 1.328-1.493s1.328.973 1.328 1.49v5.023c0 .254.1.497.279.676a.96.96 0 0 0 .675.281h3.86a.96.96 0 0 0 .957-.954V34.55c0-.849.466-2.455 2.226-2.455 1.632 0 2.226 1.457 2.226 2.435v6.948a.96.96 0 0 0 .28.674.95.95 0 0 0 .674.28h3.842a.96.96 0 0 0 .674-.28.95.95 0 0 0 .28-.674v-11.38l.069-.057 7.507-6.014 4.295 3.207v14.249a.96.96 0 0 0 .28.674.95.95 0 0 0 .674.28h3.834a.96.96 0 0 0 .674-.28.95.95 0 0 0 .28-.674V29.614a.96.96 0 0 0-.383-.772l-3.448-2.573v-8.196l.051-.054 7.175-7.283v30.745a.96.96 0 0 0 .955.955h3.86a.96.96 0 0 0 .955-.955V21.472h1.423l.052.049 4.89 4.619v15.338a.96.96 0 0 0 .955.955h3.886c.254 0 .497-.1.676-.279a.96.96 0 0 0 .281-.675v-4.632l5.348 5.289a.95.95 0 0 0 .672.275h7.947a.96.96 0 0 0 .676-.28c.179-.179.28-.422.28-.676s-.101-.497-.28-.676a.96.96 0 0 0-.676-.28"/></svg>