<svg xmlns="http://www.w3.org/2000/svg" viewBox="0 0 516.3 186.18"><defs><style>.cls-1{fill:#23c12e;}</style></defs><g id="Camada_2" data-name="Camada 2"><g id="Camada_1-2" data-name="Camada 1"><path class="cls-1" d="M384.2,63.1c-15.43-8.79-45.88-10.48-60.82,10.23V.31H293.23V162.59c0,.69,0,1.37,0,2V170a12.35,12.35,0,0,0,9.37,12.05,153.48,153.48,0,0,0,29.82,4.13h13.94v-.05a78.21,78.21,0,0,0,16.75-1.79c59.74-13.21,65-96.23,21.08-121.24M348.28,166.73a46.75,46.75,0,0,1-24.9-.86l.19-66.39c-.54-28.51,58.2-36,58.2,19.61,0,28.53-17.53,43.39-33.49,47.64"/><path class="cls-1" d="M251.13,63.1c-15.43-8.79-45.88-10.48-60.82,10.23V.31H160.16V162.59c0,.69,0,1.37,0,2V170a12.35,12.35,0,0,0,9.37,12.05,153.38,153.38,0,0,0,29.82,4.13H213.3v-.05A78,78,0,0,0,230,184.34c59.75-13.21,65-96.23,21.09-121.24M215.21,166.73a46.74,46.74,0,0,1-24.9-.86l.19-66.39c-.54-28.51,58.19-36,58.19,19.61,0,28.53-17.52,43.39-33.48,47.64"/><path class="cls-1" d="M424.9,178.1a107.4,107.4,0,0,0,39.5,8.08c26.74,0,51.9-14.09,51.9-40.24,0-17.56-19.45-27-33.26-32.94-19.8-8.54-33.3-14.64-32.61-26.43,1.18-20,51-2.8,57.06,1.83l-.26-23.31c-7.55-3.88-21.84-8-33.8-8-29.65,0-50.92,12.71-51,38.14-.14,34.15,64.17,38.57,62.82,59.17-1.48,22.41-49.48,5.52-60.33-.2Z"/><path class="cls-1" d="M137.7,56.94h-30V183h30ZM105.08,28.27a16.73,16.73,0,1,1,16.73,16.49,16.6,16.6,0,0,1-16.73-16.49"/><path class="cls-1" d="M30.56,155.12V0H0V170.4a12.41,12.41,0,0,0,12.39,12.42h79v-27.7Z"/></g></g></svg>