<svg width="2278" height="460" viewBox="0 0 2278 460" fill="none" xmlns="http://www.w3.org/2000/svg">
<path d="M423 244C423 221.923 418.426 200.111 409.595 179.83C400.767 159.554 387.883 141.26 371.779 125.941C355.68 110.625 336.671 98.5731 315.886 90.3827C295.103 82.1932 272.89 78 250.5 78C228.11 78 205.897 82.1932 185.114 90.3827C164.329 98.5731 145.32 110.625 129.221 125.941C113.117 141.26 100.233 159.554 91.4046 179.83C82.5737 200.111 78 221.923 78 244" stroke="#E6A201" stroke-width="78" stroke-dasharray="50 50"/>
<path d="M244.04 110.234C246.731 105.866 253.025 105.798 255.829 110.029L255.96 110.234L287.421 161.294L346.957 154.057L347.199 154.031C352.256 153.585 356.125 158.548 354.389 163.375L334.084 219.808L376.863 261.843C380.581 265.496 379.145 271.785 374.211 273.463L317.43 292.773L311.238 352.428C310.709 357.531 305.069 360.323 300.707 357.728L300.5 357.6L250 325.246L199.5 357.6C195.111 360.411 189.3 357.612 188.762 352.428L182.569 292.773L125.789 273.463C120.855 271.785 119.419 265.496 123.137 261.843L165.915 219.808L145.611 163.375C143.875 158.548 147.744 153.585 152.801 154.031L153.043 154.057L212.578 161.294L244.04 110.234Z" fill="#8A2A2A" stroke="#983434" stroke-width="12"/>
<path d="M250.086 244.231L300.415 294.56L256.977 317.5L250.086 459.852L243.718 317.5L199.757 294.56L250.086 244.231Z" fill="#E6A201"/>
<path d="M806.223 225.759C806.223 251.435 797.002 273.443 778.561 291.783C760.017 310.123 737.958 319.292 712.384 319.292C686.301 319.292 664.548 309.664 647.125 290.407V357.195C647.125 360.965 645.699 364.276 642.846 367.129C639.891 370.084 636.529 371.561 632.759 371.561C628.989 371.561 625.627 370.084 622.672 367.129C619.819 364.276 618.393 360.965 618.393 357.195V146.134C618.393 142.364 619.819 139.053 622.672 136.2C625.627 133.245 628.989 131.768 632.759 131.768C636.529 131.768 639.891 133.245 642.846 136.2C645.699 139.053 647.125 142.364 647.125 146.134V160.958C664.548 141.498 686.301 131.768 712.384 131.768C738.06 131.768 760.119 140.988 778.561 159.43C797.002 177.872 806.223 199.982 806.223 225.759ZM777.491 225.759C777.491 207.827 771.072 192.493 758.234 179.757C745.498 166.919 730.215 160.5 712.384 160.5C694.452 160.5 679.067 166.919 666.229 179.757C653.493 192.493 647.125 207.827 647.125 225.759C647.125 243.488 653.493 258.822 666.229 271.762C679.169 284.498 694.554 290.866 712.384 290.866C730.215 290.866 745.498 284.498 758.234 271.762C771.072 258.924 777.491 243.59 777.491 225.759ZM854.671 305.232C854.671 307.168 854.263 309.002 853.448 310.734C852.735 312.466 851.716 313.994 850.392 315.319C849.067 316.542 847.539 317.509 845.807 318.223C844.075 318.936 842.241 319.292 840.305 319.292C836.433 319.292 833.071 317.917 830.218 315.166C827.365 312.415 825.938 309.104 825.938 305.232V146.134C825.938 142.364 827.365 139.053 830.218 136.2C833.173 133.245 836.535 131.768 840.305 131.768C844.075 131.768 847.437 133.245 850.392 136.2C853.244 139.053 854.671 142.364 854.671 146.134V305.232ZM1068.48 305.232C1068.48 307.168 1068.08 309.002 1067.26 310.734C1066.55 312.466 1065.53 313.994 1064.2 315.319C1062.88 316.542 1061.35 317.509 1059.62 318.223C1057.89 318.936 1056.05 319.292 1054.12 319.292C1050.24 319.292 1046.88 317.917 1044.03 315.166C1041.18 312.415 1039.75 309.104 1039.75 305.232V225.759C1039.75 207.827 1033.33 192.493 1020.49 179.757C1007.76 166.919 992.474 160.5 974.644 160.5C956.712 160.5 941.327 166.919 928.489 179.757C915.753 192.493 909.385 207.827 909.385 225.759V305.232C909.385 307.168 908.977 309.002 908.162 310.734C907.449 312.466 906.43 313.994 905.105 315.319C903.781 316.542 902.253 317.509 900.521 318.223C898.788 318.936 896.954 319.292 895.019 319.292C891.147 319.292 887.785 317.917 884.932 315.166C882.079 312.415 880.652 309.104 880.652 305.232V146.134C880.652 142.364 882.079 139.053 884.932 136.2C887.886 133.245 891.249 131.768 895.019 131.768C898.788 131.768 902.151 133.245 905.105 136.2C907.958 139.053 909.385 142.364 909.385 146.134V160.958C926.808 141.498 949.325 131.768 976.937 131.768C1002.1 131.768 1023.65 141.09 1041.58 159.736C1059.52 178.279 1068.48 200.287 1068.48 225.759V305.232ZM1275.88 305.232C1275.88 307.168 1275.47 309.002 1274.65 310.734C1273.94 312.466 1272.92 313.994 1271.6 315.319C1270.27 316.542 1268.74 317.509 1267.01 318.223C1265.28 318.936 1263.5 319.292 1261.66 319.292C1259.73 319.292 1257.89 318.936 1256.16 318.223C1254.43 317.509 1252.9 316.542 1251.58 315.319C1250.25 313.994 1249.18 312.466 1248.37 310.734C1247.65 309.002 1247.3 307.168 1247.3 305.232V290.407C1229.87 309.664 1208.12 319.292 1182.04 319.292C1156.26 319.292 1134.15 310.123 1115.71 291.783C1097.37 273.443 1088.2 251.435 1088.2 225.759C1088.2 200.083 1097.37 177.974 1115.71 159.43C1134.15 140.988 1156.26 131.768 1182.04 131.768C1208.12 131.768 1229.87 141.498 1247.3 160.958V120C1247.3 116.23 1248.72 112.918 1251.58 110.065C1254.43 107.213 1257.79 105.786 1261.66 105.786C1263.5 105.786 1265.28 106.194 1267.01 107.009C1268.74 107.722 1270.27 108.741 1271.6 110.065C1272.92 111.39 1273.94 112.918 1274.65 114.65C1275.47 116.382 1275.88 118.166 1275.88 120V305.232ZM1247.3 225.759C1247.3 207.827 1240.88 192.493 1228.04 179.757C1215.3 166.919 1199.97 160.5 1182.04 160.5C1164.1 160.5 1148.72 166.919 1135.88 179.757C1123.15 192.493 1116.78 207.827 1116.78 225.759C1116.78 243.488 1123.15 258.822 1135.88 271.762C1148.82 284.498 1164.21 290.866 1182.04 290.866C1199.97 290.866 1215.3 284.498 1228.04 271.762C1240.88 258.924 1247.3 243.59 1247.3 225.759ZM1483.42 225.759C1483.42 251.435 1474.2 273.443 1455.76 291.783C1437.42 310.123 1415.36 319.292 1389.58 319.292C1363.81 319.292 1341.7 310.123 1323.25 291.783C1304.91 273.443 1295.74 251.435 1295.74 225.759C1295.74 200.083 1304.91 177.974 1323.25 159.43C1341.7 140.988 1363.81 131.768 1389.58 131.768C1415.36 131.768 1437.42 140.988 1455.76 159.43C1474.2 177.872 1483.42 199.982 1483.42 225.759ZM1454.84 225.759C1454.84 207.827 1448.42 192.493 1435.59 179.757C1422.85 166.919 1407.52 160.5 1389.58 160.5C1371.65 160.5 1356.27 166.919 1343.43 179.757C1330.69 192.493 1324.32 207.827 1324.32 225.759C1324.32 243.488 1330.69 258.822 1343.43 271.762C1356.37 284.498 1371.75 290.866 1389.58 290.866C1407.52 290.866 1422.85 284.498 1435.59 271.762C1448.42 258.924 1454.84 243.59 1454.84 225.759ZM1611.34 146.134C1611.34 149.904 1609.86 153.266 1606.91 156.221C1604.06 159.074 1600.75 160.5 1596.98 160.5C1579.04 160.5 1563.66 166.97 1550.82 179.91C1538.08 192.849 1531.72 208.133 1531.72 225.759V305.232C1531.72 307.168 1531.31 309.002 1530.49 310.734C1529.78 312.466 1528.76 313.994 1527.44 315.319C1526.11 316.542 1524.58 317.509 1522.85 318.223C1521.12 318.936 1519.29 319.292 1517.35 319.292C1513.48 319.292 1510.12 317.917 1507.26 315.166C1504.41 312.415 1502.98 309.104 1502.98 305.232V146.134C1502.98 142.364 1504.41 139.053 1507.26 136.2C1510.22 133.245 1513.58 131.768 1517.35 131.768C1521.12 131.768 1524.48 133.245 1527.44 136.2C1530.29 139.053 1531.72 142.364 1531.72 146.134V160.958C1548.73 141.498 1570.49 131.768 1596.98 131.768C1600.64 131.768 1603.96 133.245 1606.91 136.2C1609.86 139.154 1611.34 142.466 1611.34 146.134ZM1790.61 305.232C1790.61 307.168 1790.21 309.002 1789.39 310.734C1788.68 312.466 1787.66 313.994 1786.33 315.319C1785.01 316.542 1783.48 317.509 1781.75 318.223C1780.02 318.936 1778.23 319.292 1776.4 319.292C1774.47 319.292 1772.63 318.936 1770.9 318.223C1769.17 317.509 1767.64 316.542 1766.31 315.319C1764.99 313.994 1763.92 312.466 1763.1 310.734C1762.39 309.002 1762.03 307.168 1762.03 305.232V290.407C1744.61 309.664 1722.86 319.292 1696.78 319.292C1671 319.292 1648.89 310.123 1630.45 291.783C1612.11 273.443 1602.94 251.435 1602.94 225.759C1602.94 200.083 1612.11 177.974 1630.45 159.43C1648.89 140.988 1671 131.768 1696.78 131.768C1722.86 131.768 1744.61 141.498 1762.03 160.958V146.134C1762.03 142.364 1763.46 139.053 1766.31 136.2C1769.27 133.245 1772.63 131.768 1776.4 131.768C1778.23 131.768 1780.02 132.175 1781.75 132.99C1783.48 133.805 1785.01 134.875 1786.33 136.2C1787.66 137.524 1788.68 139.053 1789.39 140.785C1790.21 142.517 1790.61 144.3 1790.61 146.134V305.232ZM1762.03 225.759C1762.03 207.827 1755.62 192.493 1742.78 179.757C1730.04 166.919 1714.71 160.5 1696.78 160.5C1678.84 160.5 1663.46 166.919 1650.62 179.757C1637.88 192.493 1631.52 207.827 1631.52 225.759C1631.52 243.488 1637.88 258.822 1650.62 271.762C1663.56 284.498 1678.94 290.866 1696.78 290.866C1714.71 290.866 1730.04 284.498 1742.78 271.762C1755.62 258.924 1762.03 243.59 1762.03 225.759ZM2069.99 305.232C2069.99 309.104 2068.51 312.415 2065.56 315.166C2062.6 317.917 2059.29 319.292 2055.62 319.292C2053.69 319.292 2051.86 318.936 2050.12 318.223C2048.39 317.509 2046.86 316.542 2045.54 315.319C2044.21 313.994 2043.14 312.466 2042.33 310.734C2041.62 309.002 2041.26 307.168 2041.26 305.232V202.223C2041.26 190.914 2037.13 181.132 2028.88 172.879C2020.63 164.626 2010.85 160.5 1999.54 160.5C1988.23 160.5 1978.44 164.626 1970.19 172.879C1961.94 181.132 1957.81 190.914 1957.81 202.223V305.232C1957.81 307.168 1957.4 309.002 1956.59 310.734C1955.88 312.466 1954.86 313.994 1953.53 315.319C1952.21 316.542 1950.68 317.509 1948.95 318.223C1947.22 318.936 1945.38 319.292 1943.45 319.292C1941.51 319.292 1939.68 318.936 1937.94 318.223C1936.21 317.509 1934.68 316.542 1933.36 315.319C1932.03 313.994 1930.97 312.466 1930.15 310.734C1929.44 309.002 1929.08 307.168 1929.08 305.232V202.223C1929.08 190.914 1924.95 181.132 1916.7 172.879C1908.45 164.626 1898.67 160.5 1887.36 160.5C1876.05 160.5 1866.27 164.626 1858.01 172.879C1849.76 181.132 1845.63 190.914 1845.63 202.223V305.232C1845.63 307.168 1845.23 309.002 1844.41 310.734C1843.7 312.466 1842.68 313.994 1841.35 315.319C1840.03 316.542 1838.5 317.509 1836.77 318.223C1835.04 318.936 1833.2 319.292 1831.27 319.292C1827.4 319.292 1824.03 317.917 1821.18 315.166C1818.33 312.415 1816.9 309.104 1816.9 305.232V146.134C1816.9 142.364 1818.33 139.053 1821.18 136.2C1824.14 133.245 1827.5 131.768 1831.27 131.768C1835.55 131.768 1839.01 133.296 1841.66 136.353C1844.31 139.307 1845.63 142.924 1845.63 147.204C1857.76 136.913 1871.67 131.768 1887.36 131.768C1899.07 131.768 1909.93 134.773 1919.91 140.785C1929.9 146.796 1937.74 154.947 1943.45 165.238C1949.15 154.947 1957 146.796 1966.98 140.785C1977.17 134.773 1988.02 131.768 1999.54 131.768C2018.79 131.768 2035.35 138.696 2049.21 152.553C2063.06 166.41 2069.99 182.966 2069.99 202.223V305.232ZM2277.23 305.232C2277.23 307.168 2276.82 309.002 2276.01 310.734C2275.3 312.466 2274.28 313.994 2272.95 315.319C2271.63 316.542 2270.1 317.509 2268.37 318.223C2266.64 318.936 2264.85 319.292 2263.02 319.292C2261.08 319.292 2259.25 318.936 2257.52 318.223C2255.78 317.509 2254.26 316.542 2252.93 315.319C2251.61 313.994 2250.54 312.466 2249.72 310.734C2249.01 309.002 2248.65 307.168 2248.65 305.232V290.407C2231.23 309.664 2209.48 319.292 2183.39 319.292C2157.61 319.292 2135.51 310.123 2117.06 291.783C2098.72 273.443 2089.55 251.435 2089.55 225.759C2089.55 200.083 2098.72 177.974 2117.06 159.43C2135.51 140.988 2157.61 131.768 2183.39 131.768C2209.48 131.768 2231.23 141.498 2248.65 160.958V146.134C2248.65 142.364 2250.08 139.053 2252.93 136.2C2255.89 133.245 2259.25 131.768 2263.02 131.768C2264.85 131.768 2266.64 132.175 2268.37 132.99C2270.1 133.805 2271.63 134.875 2272.95 136.2C2274.28 137.524 2275.3 139.053 2276.01 140.785C2276.82 142.517 2277.23 144.3 2277.23 146.134V305.232ZM2248.65 225.759C2248.65 207.827 2242.23 192.493 2229.4 179.757C2216.66 166.919 2201.32 160.5 2183.39 160.5C2165.46 160.5 2150.08 166.919 2137.24 179.757C2124.5 192.493 2118.13 207.827 2118.13 225.759C2118.13 243.488 2124.5 258.822 2137.24 271.762C2150.18 284.498 2165.56 290.866 2183.39 290.866C2201.32 290.866 2216.66 284.498 2229.4 271.762C2242.23 258.924 2248.65 243.59 2248.65 225.759Z" fill="#983434"/>
</svg>
