<svg width="162" height="42" viewBox="0 0 162 42" fill="none" xmlns="http://www.w3.org/2000/svg">
<path d="M23.535 0.000668385C23.7842 0.011918 24.0067 0.159323 24.1141 0.384457C26.4464 5.274 38.063 25.1527 46.9139 40.1696C47.0687 40.4323 47.0282 40.7668 46.8153 40.985C46.6022 41.2032 46.2692 41.2517 46.0028 41.1032C39.2812 37.3563 31.5625 35.3689 23.5047 35.3688C15.3328 35.3688 7.61622 37.3574 1.00865 41.1013C0.743118 41.2517 0.409727 41.205 0.195169 40.988C-0.0193713 40.7709 -0.0618236 40.4373 0.0916533 40.1735C8.80397 25.2051 20.0168 5.2484 22.9227 0.331723C23.0497 0.116791 23.2856 -0.0104049 23.535 0.000668385ZM75.2987 13.321C75.6845 13.336 76.0506 13.4958 76.3241 13.7682C76.5975 14.0406 76.7584 14.4061 76.7752 14.7917V27.2097C76.7751 34.7785 70.6683 40.6608 63.0995 40.6608C55.5309 40.6606 49.4306 34.7783 49.4305 27.2097V15.0104C49.4306 14.3017 50.1394 13.5397 50.9012 13.5397C51.8814 13.5398 52.5897 14.3018 52.5897 15.0104V27.2097C52.6283 29.9717 53.7528 32.6078 55.7196 34.5475C57.6866 36.4873 60.3388 37.5749 63.1014 37.5749C65.8638 37.5748 68.5154 36.4872 70.4823 34.5475C72.4491 32.6078 73.5736 29.9717 73.6122 27.2097L73.828 14.7917C73.8177 14.5961 73.8486 14.4003 73.9188 14.2175C73.989 14.0344 74.0975 13.8678 74.2362 13.7292C74.3748 13.5906 74.5414 13.483 74.7245 13.4128C74.9074 13.3426 75.1032 13.3107 75.2987 13.321ZM112.223 13.1032C115.926 13.1033 119.357 14.4105 122.026 17.0798C124.588 19.8573 126.058 23.233 126.058 26.7722C126.058 30.4554 124.594 33.988 121.99 36.5925C119.386 39.1969 115.854 40.6608 112.171 40.6608C108.487 40.6608 104.955 39.197 102.349 36.5925C99.7454 33.988 98.2831 30.4553 98.2831 26.7722C98.2809 19.3647 104.489 13.1032 112.223 13.1032ZM82.9774 2.53778C83.169 2.53319 83.3599 2.56845 83.537 2.64129C83.7149 2.71425 83.8757 2.82345 84.0086 2.96161C84.1423 3.09975 84.2459 3.26402 84.3124 3.44403C84.3781 3.62417 84.4058 3.81684 84.3944 4.00848V13.5397H95.1766C96.1566 13.5399 96.6473 14.247 96.6473 15.2272C96.6518 15.4189 96.6161 15.6094 96.5428 15.7868C96.4695 15.9644 96.3608 16.1252 96.2225 16.2585C96.0843 16.3916 95.9203 16.4949 95.7401 16.5612C95.5599 16.6276 95.3683 16.6558 95.1766 16.6442H84.3944V27.4811C84.3945 32.9809 88.9675 37.7739 94.6854 37.7741C95.6655 37.7741 96.3748 38.481 96.3749 39.2448C96.3749 39.9515 95.6656 40.6598 94.6854 40.6598C87.4991 40.6596 81.2909 34.6698 81.2909 27.2624V4.00848C81.2909 3.02818 81.9973 2.5378 82.9774 2.53778ZM160.638 2.59344C161.346 2.59373 162 3.24655 162 4.06317V21.7077C162 32.1112 154.702 40.6598 145.661 40.6598C136.73 40.6597 129.378 32.1111 129.378 21.7077L129.161 4.22723C129.161 3.24691 129.812 2.81122 130.795 2.81122C131.504 2.81123 132.265 3.24693 132.265 4.22723V21.7077C132.266 30.4773 138.366 37.8825 145.663 37.8825C153.071 37.8824 159.006 30.4773 159.006 21.7077V4.06317C159.004 3.24637 159.658 2.59344 160.638 2.59344ZM112.223 16.0417C106.185 16.0437 101.486 21.0537 101.486 26.7722C101.486 32.7642 106.172 37.7192 112.217 37.7194C118.152 37.7194 123.109 32.7644 123.109 26.7722C123.115 24.105 121.861 21.3275 119.848 19.3649C117.886 17.0775 115.11 16.0417 112.223 16.0417ZM23.4608 5.4743C20.467 10.6365 12.5897 24.621 5.92368 36.1227C11.2262 33.5513 17.2198 32.2043 23.5018 32.2038H23.5047C29.5947 32.1741 35.6014 33.5257 41.078 36.1432C34.3406 24.7052 26.1778 10.7044 23.4608 5.4743Z" fill="#FFFFFF"/>
</svg>
