<svg xmlns="http://www.w3.org/2000/svg" width="220" height="59" fill="none" xmlns:v="https://vecta.io/nano"><path d="M147.414 23.067c.186-.016.321-.179.305-.363s-.178-.321-.362-.305-.321.179-.307.363.179.321.364.305zm-21.425-10.885c0 .543.441.983.983.983s.983-.44.983-.983-.44-.983-.983-.983-.983.44-.983.983zm6.226 2.096a.98.98 0 1 0 1.964 0 .98.98 0 1 0-1.964 0zm-23.439 25.598c0 .543.441.983.983.983a.98.98 0 1 0 0-1.965c-.542 0-.983.44-.983.983zm4.84 4.061c0 .543.441.983.983.983a.98.98 0 1 0 0-1.965c-.542 0-.983.44-.983.983zm6.178 1.864c0 .543.44.983.983.983s.982-.44.982-.983-.44-.983-.982-.983-.983.44-.983.983zm6.334-.075c0 .543.441.983.982.983a.98.98 0 1 0 0-1.965c-.541 0-.982.44-.982.983zm6.091-1.924a.98.98 0 0 0 .983.983c.542 0 .983-.44.983-.983s-.441-.983-.983-.983a.98.98 0 0 0-.983.983zm4.846-3.89c0 .543.44.983.983.983a.98.98 0 1 0 0-1.965c-.543 0-.983.44-.983.983zm-.07-21.761c0 .543.44.983.982.983a.98.98 0 1 0 0-1.965c-.542 0-.982.44-.982.983zm-6.885-2.583a1.25 1.25 0 1 0-2.501 0 1.25 1.25 0 1 0 2.501 0zm4.189 2.584a1.25 1.25 0 1 0-2.503 0 1.25 1.25 0 1 0 2.503 0zm3.315 3.707a1.25 1.25 0 1 0-2.503 0 1.25 1.25 0 1 0 2.503 0zm-8.998-14.047c.015-.185-.121-.347-.305-.363s-.348.121-.363.305.119.347.305.363.347-.121.363-.305zm8.381 3.038c.015-.184-.122-.347-.305-.363s-.347.12-.365.305.122.347.305.363.347-.121.365-.305zm6.584 4.709c.016-.184-.121-.347-.305-.363s-.347.121-.364.305.121.347.305.363.349-.121.364-.305zm-11.389-4.354a.64.64 0 0 0-.581-.69c-.35-.03-.659.229-.689.58s.23.659.579.689a.64.64 0 0 0 .691-.579zm6.395 3.19c.03-.351-.229-.659-.58-.689s-.658.229-.689.579.229.659.579.689.66-.229.69-.579zm4.374 4.54c-.351-.03-.66.229-.69.579s.229.659.579.689a.64.64 0 0 0 .69-.579c.03-.35-.229-.659-.579-.689zm-19.092-9.477c-.352 0-.637.285-.637.637s.285.637.637.637a.64.64 0 0 0 .638-.637.64.64 0 0 0-.638-.637zm-3.103 1.741c-.542 0-.983.44-.983.983s.441.983.983.983a.98.98 0 1 0 0-1.965zm-6.226 2.096c-.542 0-.982.44-.982.983s.44.983.982.983.983-.44.983-.983-.44-.983-.983-.983zm-9.11 14.794c-.543 0-.983.44-.983.983s.44.983.983.983.982-.44.982-.983-.44-.983-.982-.983zm1.198-5.771c-.541 0-.982.44-.982.983s.441.983.982.983.983-.44.983-.983-.44-.983-.983-.983zm3.132-5.149c-.542 0-.983.44-.983.983s.441.983.983.983a.98.98 0 1 0 0-1.965zm14.109 27.38a1.25 1.25 0 1 0 0-2.503c-.691 0-1.252.56-1.252 1.252a1.25 1.25 0 0 0 1.252 1.252zm0-28.468a1.25 1.25 0 1 0 0-2.503c-.691 0-1.252.56-1.252 1.252a1.25 1.25 0 0 0 1.252 1.252zm-4.991.739a1.25 1.25 0 1 0 0-2.503 1.25 1.25 0 1 0 0 2.503zm-4.188 2.584c.692 0 1.253-.56 1.253-1.252s-.561-1.251-1.253-1.251a1.25 1.25 0 1 0 0 2.503zm-3.314 3.707a1.25 1.25 0 1 0 0-2.503c-.692 0-1.253.56-1.253 1.252s.561 1.252 1.253 1.252zm-1.368 4.66a1.25 1.25 0 1 0 0-2.503 1.25 1.25 0 1 0 0 2.503zm9.477-19.653c.185-.016.321-.179.305-.363s-.179-.321-.362-.305-.322.179-.306.363.179.321.363.305zm-8.38 3.038c.185-.016.321-.179.305-.363s-.179-.321-.363-.305-.321.179-.306.363.18.321.364.305zm36.309 26.206c.186-.016.321-.178.305-.363s-.178-.321-.362-.305-.321.179-.307.363.179.321.364.305zm-4.02 5.575c.184-.016.321-.178.305-.363s-.179-.321-.362-.305-.323.179-.307.363.179.321.364.305zm-6.702 4.657c.183-.016.32-.178.305-.363s-.179-.321-.365-.305-.32.178-.305.363.179.321.365.305zm-8.381 3.024c.184-.016.32-.179.305-.363s-.179-.321-.363-.305-.322.179-.305.363.177.321.363.305zm-8.826 0c.185-.016.321-.179.306-.363s-.18-.321-.363-.305-.322.179-.306.363.179.321.363.305zm-8.38-3.038c.185-.016.321-.179.305-.363s-.179-.321-.363-.305-.321.179-.306.363.18.321.364.305zm-6.585-4.709c.185-.016.322-.179.305-.363s-.178-.321-.363-.305-.321.178-.305.363.178.321.363.305zm-4.138-5.509c.184-.016.321-.178.305-.363s-.179-.321-.363-.305-.322.179-.306.363.179.321.364.305zm4.138-21.497c.185-.016.322-.179.305-.363s-.178-.321-.363-.305-.321.179-.305.363.178.321.363.305zm11.717-4.08c.35-.03.609-.339.579-.689s-.339-.61-.69-.58-.61.339-.579.69.339.61.69.579zm-6.397 3.19c.351-.03.61-.339.58-.689a.64.64 0 0 0-.69-.579c-.35.03-.609.339-.579.689s.339.61.689.579zm-5.642 4.65c.03.35.339.61.689.579s.61-.339.58-.689-.339-.61-.689-.579a.64.64 0 0 0-.58.689zm41.282 12.079a.64.64 0 0 0-.579.689.64.64 0 0 0 .691.58c.349-.03.61-.339.579-.69s-.339-.61-.691-.579zm-2.507 6.169a.64.64 0 0 0-.579.689.64.64 0 0 0 .691.58c.349-.03.61-.339.579-.69s-.339-.61-.691-.579zm-4.95 5.243c-.351.031-.61.339-.58.69a.64.64 0 0 0 .69.58c.35-.03.61-.339.579-.689s-.339-.61-.689-.58zm-6.519 3.174c-.351.03-.61.339-.58.689s.339.61.689.58.611-.339.58-.69-.339-.61-.689-.579zm-7.69 1.048a.64.64 0 0 0-.58.69.64.64 0 0 0 .69.58c.35-.03.61-.339.579-.69s-.339-.61-.689-.58zm-7.403-.853c-.351.03-.611.339-.58.689s.338.61.689.58.61-.339.58-.69-.339-.61-.689-.579zm-6.681-3.37c-.35.031-.609.339-.579.69s.339.61.689.58.61-.339.58-.689a.64.64 0 0 0-.69-.58zm-4.959-5.252c-.35.03-.609.339-.579.689s.339.61.689.579.611-.339.58-.689-.338-.61-.69-.579zm-2.767-12.174c-.35.03-.61.339-.579.689s.339.61.69.58.609-.339.579-.689a.64.64 0 0 0-.69-.579zm18.126 16.81a1.25 1.25 0 1 0-2.503 0 1.25 1.25 0 1 0 2.503 0zm8.633-1.252a1.25 1.25 0 0 0-1.252 1.252c0 .691.561 1.252 1.252 1.252s1.252-.56 1.252-1.252a1.25 1.25 0 0 0-1.252-1.252zm4.287-2.48a1.25 1.25 0 1 0 0 2.503 1.25 1.25 0 1 0 0-2.503zm4.55-2.559c0-.691-.561-1.251-1.253-1.251a1.25 1.25 0 1 0 0 2.503c.692 0 1.253-.56 1.253-1.252zm-22.91 2.456a1.25 1.25 0 1 0 0 2.503c.692 0 1.253-.56 1.253-1.251s-.561-1.252-1.253-1.252zm-3.314-3.707c-.692 0-1.253.56-1.253 1.252s.561 1.252 1.253 1.252a1.25 1.25 0 1 0 0-2.503zm50.211-10.712h7.75v10.307h2.722V24.244h7.071l.66-1.776h-17.543l-.66 1.776zM98.74 22.468h-2.723v12.084h12.425l.665-1.784H98.74v-10.3zm25.324 0l6.563 11.963h2.916l-6.562-11.963h-2.917zm-9.926 11.963h2.918l6.562-11.963h-2.917l-6.563 11.963zm39.164-3.015l-11.427-8.949h-2.724v11.963h2.724v-8.973l11.427 8.973h2.723V22.468h-2.723v8.949zm55.05-3.892h-8.347c-1.021 0-1.657-.668-1.657-1.488v-.338c0-.86.701-1.455 1.626-1.455l11.27.001.663-1.776h-12.724c-2.295.028-3.46 1.541-3.49 3.072v.792c.025 1.552 1.21 3.155 3.555 3.155l8.347.001c1.021 0 1.657.668 1.657 1.488v.338c0 .86-.701 1.455-1.628 1.455l-11.268-.001-.663 1.776h12.724c2.295-.027 3.459-1.541 3.49-3.072v-.793c-.025-1.551-1.21-3.155-3.555-3.155zm-188.245 0h-8.346c-1.021 0-1.658-.668-1.658-1.488v-.338c0-.86.702-1.455 1.627-1.455l11.269.001.663-1.776H10.939c-2.295.028-3.459 1.541-3.49 3.072v.792c.024 1.552 1.209 3.155 3.555 3.155l8.346.001c1.021 0 1.658.668 1.658 1.488v.338c0 .86-.702 1.455-1.627 1.455l-11.269-.001-.662 1.776h12.723c2.295-.027 3.459-1.541 3.49-3.072v-.793c-.024-1.551-1.209-3.155-3.555-3.155zm165.438 6.907h2.722V22.468h-2.722v11.963zM29.594 24.244h7.75v10.307h2.723V24.244h7.071l.661-1.776H30.254l-.661 1.776zm37.287 0l.661-1.776H53.77v12.086h13.129l.661-1.776H56.493v-3.423h7.743l.653-1.765h-8.396v-3.346h10.388zm11.575 8.523h10.366l-.664 1.784H75.733V22.468h2.723v10.3z" fill="#fff"/></svg>