<svg xmlns="http://www.w3.org/2000/svg" width="168" height="34" fill="none" xmlns:v="https://vecta.io/nano"><mask id="A" maskUnits="userSpaceOnUse" x="0" y="0" width="16" height="16"><path d="M0 0h15.761v15.921H0V0z" fill="#fff"/></mask><g mask="url(#A)"><path d="M.006 15.636L15.643 0C7.215.461.467 7.209.006 15.636z" fill="#fff"/></g><mask id="B" maskUnits="userSpaceOnUse" x="0" y="0" width="35" height="34"><path d="M0 0h34.336v33.102H0V0z" fill="#fff"/></mask><g mask="url(#B)"><path d="M33.15 16.559l-.005-.213H19.789l-3.027-3.027h16.067a16.53 16.53 0 0 0-1.456-4.229H17.094l3.022-3.027h9.287a16.55 16.55 0 0 0-5.11-4.177l-.109-.057A16.49 16.49 0 0 0 19.887.306L.312 19.881a16.1 16.1 0 0 0 .643 2.291 16.44 16.44 0 0 0 .933 2.12c2.612 4.95 7.655 8.412 13.543 8.811L4.251 21.928l2.291-2.291 13.195 13.201c1.57-.306 3.063-.829 4.442-1.544L9.532 16.647l2.286-2.286L26.946 29.49a16.7 16.7 0 0 0 2.939-3.047l-5.867-5.867h8.64c.321-1.285.492-2.628.492-4.017z" fill="#fff"/></g><path d="M41.85 11.059c0-1.244.218-2.374.658-3.384s1.042-1.876 1.798-2.591c.762-.72 1.659-1.27 2.695-1.658 1.031-.389 2.135-.58 3.307-.58 1.197 0 2.332.192 3.405.58 1.068.389 1.959.912 2.679 1.57l-3.208 3.866a2.85 2.85 0 0 0-1.099-.866c-.441-.202-.933-.301-1.472-.301-.441 0-.85.078-1.228.233a2.92 2.92 0 0 0-1 .669c-.285.295-.508.648-.674 1.068a3.84 3.84 0 0 0-.238 1.394c0 .513.083.969.249 1.373a3.31 3.31 0 0 0 .684 1.042 2.87 2.87 0 0 0 1 .674c.378.15.783.228 1.208.228.601 0 1.12-.125 1.55-.373s.772-.539 1.021-.881l3.208 3.846c-.705.705-1.565 1.265-2.591 1.684s-2.192.622-3.493.622a9.2 9.2 0 0 1-3.307-.591 7.97 7.97 0 0 1-2.695-1.679c-.757-.726-1.358-1.591-1.798-2.596-.441-1-.658-2.12-.658-3.348zm22.928-.088a4.18 4.18 0 0 0 .228 1.405c.156.425.368.793.638 1.099a2.74 2.74 0 0 0 .98.715c.378.171.793.254 1.233.254a2.9 2.9 0 0 0 1.218-.254 2.86 2.86 0 0 0 .974-.715 3.18 3.18 0 0 0 .648-1.099c.156-.425.233-.892.233-1.405 0-.498-.078-.954-.233-1.373s-.368-.767-.648-1.052a2.96 2.96 0 0 0-.974-.674 3.05 3.05 0 0 0-1.218-.238 3.14 3.14 0 0 0-1.233.238c-.383.161-.705.384-.98.674-.27.285-.482.637-.638 1.052a4.04 4.04 0 0 0-.228 1.373zm-5.561 0c0-1.244.223-2.369.663-3.374.435-1 1.042-1.855 1.809-2.56a8.11 8.11 0 0 1 2.736-1.622c1.057-.384 2.198-.575 3.431-.575s2.368.192 3.426.575c1.052.378 1.969.923 2.747 1.622a7.46 7.46 0 0 1 1.819 2.56c.441 1.005.663 2.13.663 3.374s-.223 2.379-.663 3.405a7.68 7.68 0 0 1-1.819 2.628c-.777.726-1.695 1.285-2.747 1.679s-2.198.596-3.426.596-2.374-.202-3.431-.596c-1.052-.394-1.964-.954-2.736-1.679s-1.373-1.601-1.809-2.628c-.441-1.026-.663-2.161-.663-3.405zm26.299-1.119h1.026a3.95 3.95 0 0 0 .581-.047 1.65 1.65 0 0 0 .586-.187c.181-.093.337-.223.456-.394.13-.171.186-.394.186-.669s-.047-.498-.15-.663a1.01 1.01 0 0 0-.394-.358 1.46 1.46 0 0 0-.523-.155l-.523-.038h-1.244v2.51zM80.488 3.28h6.701a11.31 11.31 0 0 1 2.275.233c.752.155 1.425.425 2.016.814s1.078.907 1.441 1.56.549 1.467.549 2.446c0 .954-.233 1.793-.7 2.519s-1.14 1.285-2.016 1.679l3.949 6.307h-6.007l-2.98-5.561h-.155v5.561h-5.074V3.28zm26.27 15.559h-5.229V7.696h-3.825V3.28h12.879v4.416h-3.825v11.143zm8.521-15.559h10.697v4.353h-5.778V8.97h5.426v4.063h-5.426v1.451h6.152v4.353h-11.071V3.28zm14.537 0h5.913l2.571 9.624h.088l2.462-9.624h5.908l-5.623 15.559h-5.805L129.816 3.28zm25.94 5.426l-1.275 3.846h2.529l-1.254-3.846zm-2.705-5.426h5.561l6.064 15.559h-5.691l-.814-2.286h-4.939l-.772 2.286h-5.535l6.126-15.559zm11.017.482v1.85h-.565v-1.85h-.658V3.28h1.881v.482h-.658z" fill="#fff"/><mask id="C" maskUnits="userSpaceOnUse" x="164" y="2" width="4" height="5"><path d="M164.362 2.653h3.55v3.98h-3.55v-3.98z" fill="#fff"/></mask><g mask="url(#C)"><path d="M167.358 5.612l.016-1.648h-.011l-.606 1.648h-.394l-.591-1.648h-.005l.01 1.648h-.528V3.28h.798l.534 1.493h.01l.508-1.493h.814v2.332h-.555z" fill="#fff"/></g><path d="M47.086 27.053c0-1.011-.736-1.736-1.716-1.736a1.67 1.67 0 0 0-1.715 1.736c0 1.011.736 1.741 1.715 1.741s1.716-.731 1.716-1.741zm1.176-2.716v5.432h-1.176v-.783c-.41.58-1.052.922-1.902.922-1.477 0-2.7-1.249-2.7-2.856 0-1.617 1.223-2.856 2.7-2.856.85 0 1.493.347 1.902.912v-.772h1.176z" fill="#fff"/><mask id="D" maskUnits="userSpaceOnUse" x="48" y="23" width="8" height="11"><path d="M48.93 23.881h6.634v9.22H48.93v-9.22z" fill="#fff"/></mask><g mask="url(#D)"><path d="M54.389 27.001a1.67 1.67 0 0 0-1.726-1.705c-.99 0-1.731.726-1.731 1.705 0 .974.741 1.705 1.731 1.705.985 0 1.726-.731 1.726-1.705zm1.151-2.664v5.183c0 1.747-1.368 2.565-2.794 2.565-1.192 0-2.115-.446-2.571-1.316l1.011-.586c.239.466.638.834 1.586.834 1.011 0 1.617-.555 1.617-1.498v-.663c-.415.586-1.052.948-1.892.948-1.529 0-2.736-1.254-2.736-2.804 0-1.555 1.208-2.804 2.736-2.804.84 0 1.477.358 1.892.943v-.803h1.151z" fill="#fff"/></g><path d="M60.186 24.238v1.275c-.772-.057-1.674.3-1.674 1.519v2.736h-1.171v-5.431h1.171v.912c.327-.736.99-1.011 1.674-1.011zm1.307.099h1.171v5.432h-1.171v-5.431zm-.166-1.565a.75.75 0 0 1 .752-.746c.415 0 .746.337.746.746s-.332.752-.746.752a.76.76 0 0 1-.751-.751zm7.074 5.468c0 1.083-.948 1.669-2.12 1.669-1.088 0-1.866-.487-2.213-1.27l1.005-.586c.176.487.612.783 1.208.783.518 0 .922-.176.922-.606 0-.969-2.918-.425-2.918-2.368 0-1.021.876-1.664 1.985-1.664.891 0 1.627.415 2.011 1.13l-.99.555c-.197-.425-.575-.617-1.021-.617-.425 0-.793.181-.793.575 0 .985 2.923.389 2.923 2.4zm1.021-1.187a2.8 2.8 0 0 1 2.866-2.856c1.063 0 1.99.555 2.425 1.399l-1.011.591c-.244-.513-.772-.84-1.425-.84-.954 0-1.684.731-1.684 1.705 0 .98.731 1.705 1.684 1.705.653 0 1.182-.337 1.446-.834l1.011.575c-.456.855-1.384 1.41-2.446 1.41-1.638 0-2.866-1.249-2.866-2.856zm6.593-2.716h1.177v5.432h-1.176v-5.431zm-.166-1.565c0-.409.342-.746.751-.746a.75.75 0 0 1 .752.746.76.76 0 0 1-.752.752c-.409 0-.751-.347-.751-.751zm7.241 3.825c-.166-.933-.85-1.337-1.555-1.337a1.58 1.58 0 0 0-1.643 1.337h3.198zm-1.446 2.239c.653 0 1.14-.29 1.399-.674l.969.565c-.498.736-1.316 1.182-2.379 1.182-1.793 0-2.954-1.223-2.954-2.856 0-1.607 1.161-2.856 2.866-2.856 1.617 0 2.726 1.301 2.726 2.866a3.9 3.9 0 0 1-.041.492h-4.328c.187.845.871 1.28 1.741 1.28zm9.037-2.4v3.332h-1.177v-3.213c0-.824-.477-1.259-1.213-1.259-.772 0-1.384.456-1.384 1.565v2.907h-1.171v-5.431h1.171v.695c.358-.565.948-.835 1.684-.835 1.218 0 2.089.824 2.089 2.239zm1.391.617a2.8 2.8 0 0 1 2.866-2.856c1.068 0 1.99.555 2.425 1.399l-1.011.591c-.238-.513-.772-.84-1.425-.84-.954 0-1.684.731-1.684 1.705 0 .98.731 1.705 1.684 1.705.653 0 1.187-.337 1.446-.834l1.011.575c-.456.855-1.379 1.41-2.446 1.41-1.638 0-2.866-1.249-2.866-2.856zm10.612-.456c-.166-.933-.85-1.337-1.555-1.337a1.58 1.58 0 0 0-1.643 1.337h3.198zm-1.446 2.239c.653 0 1.14-.29 1.399-.674l.969.565c-.502.736-1.316 1.182-2.378 1.182-1.794 0-2.955-1.223-2.955-2.856 0-1.607 1.161-2.856 2.866-2.856 1.617 0 2.727 1.301 2.727 2.866a3.72 3.72 0 0 1-.042.492h-4.327c.187.845.87 1.28 1.741 1.28z" fill="#fff"/></svg>